<svg xmlns="http://www.w3.org/2000/svg" viewBox="0 0 32 32">
  <rect width="32" height="32" rx="8" fill="#F3E8D8"/>
  <rect x="7" y="14" width="18" height="12" rx="2.5" fill="#C47A3A"/>
  <rect x="7" y="19" width="18" height="1.5" fill="#3A2C22" opacity="0.22"/>
  <path d="M7 16.5c0-4.2 4-7.5 9-7.5s9 3.3 9 7.5c-2-1.4-4.2-2-6.2-2-1.6 0-2.6.7-2.8.7s-1.2-.7-2.8-.7c-2 0-4.2.6-6.2 2z" fill="#FBF6EE"/>
  <circle cx="12.5" cy="16.2" r="1.6" fill="#FBF6EE"/>
  <circle cx="21" cy="16.6" r="1.4" fill="#FBF6EE"/>
  <circle cx="16" cy="8.2" r="2.3" fill="#C47A3A"/>
  <rect x="15.35" y="4.6" width="1.3" height="2.4" rx="0.65" fill="#3A2C22"/>
</svg>
